<svg width="398" height="141" viewBox="0 0 398 141" fill="none" xmlns="http://www.w3.org/2000/svg">
<path d="M42.6344 113.2C34.2021 113.2 25.9592 110.69 18.948 105.986C11.9368 101.283 6.47226 94.5973 3.24536 86.7755C0.0184594 78.9537 -0.825847 70.3469 0.819212 62.0434C2.46427 53.7398 6.5248 46.1125 12.4873 40.126C18.4499 34.1395 26.0466 30.0626 34.3169 28.4109C42.5871 26.7593 51.1595 27.6071 58.95 30.8469C66.7404 34.0868 73.3989 39.5733 78.0837 46.6127C82.7684 53.6522 85.2689 61.9282 85.2689 70.3944C85.2554 81.7431 80.7592 92.6231 72.7666 100.648C64.7741 108.673 53.9377 113.187 42.6344 113.2V113.2ZM42.6344 49.5032C38.5248 49.5032 34.5074 50.7267 31.0903 53.0191C27.6732 55.3115 25.01 58.5698 23.4373 62.3819C21.8646 66.194 21.4531 70.3889 22.2548 74.4358C23.0566 78.4827 25.0356 82.1999 27.9416 85.1176C30.8475 88.0353 34.55 90.0223 38.5807 90.8273C42.6114 91.6322 46.7893 91.219 50.5862 89.64C54.383 88.061 57.6282 85.387 59.9114 81.9562C62.1946 78.5254 63.4133 74.4919 63.4133 70.3657C63.404 64.8355 61.2119 59.5344 57.3171 55.624C53.4223 51.7135 48.1425 49.5125 42.6344 49.5032Z" fill="#181DC6"/>
<path d="M96.2651 85.1258C93.9875 94.7456 89.0774 103.535 82.0888 110.502C75.1003 117.469 66.3116 122.336 56.7143 124.554C54.8989 124.983 53.2812 126.015 52.1245 127.483C50.9677 128.952 50.3399 130.77 50.3433 132.643C50.3395 133.889 50.6147 135.12 51.1486 136.245C51.6826 137.37 52.4616 138.361 53.4281 139.143C54.3945 139.925 55.5237 140.479 56.7321 140.764C57.9405 141.049 59.1973 141.057 60.4095 140.789C73.0297 137.872 84.5861 131.47 93.7732 122.305C102.96 113.141 109.412 101.58 112.4 88.9286C112.676 87.7078 112.675 86.4401 112.396 85.2199C112.116 83.9997 111.566 82.8585 110.786 81.8816C110.006 80.9048 109.016 80.1174 107.891 79.5782C106.765 79.0389 105.533 78.7619 104.286 78.7676V78.7676C102.435 78.7796 100.641 79.4114 99.1878 80.5632C97.7349 81.7149 96.7063 83.3207 96.2651 85.1258Z" fill="#6DC9C8"/>
<path d="M61.9448 62.7537C62.9125 65.183 63.4119 67.7748 63.4165 70.3912C63.4138 73.8362 62.5621 77.2269 60.9375 80.2613C59.3129 83.2957 56.9657 85.8796 54.1053 87.7823C51.2448 89.685 47.96 90.8476 44.5435 91.1664C41.127 91.4853 37.6849 90.9504 34.5242 89.6096C32.1374 96.9316 31.8439 104.779 33.6769 112.26C39.8957 113.609 46.3364 113.542 52.5264 112.066C58.7164 110.59 64.4988 107.741 69.4494 103.729C74.4 99.7165 78.3932 94.6423 81.1361 88.8786C83.879 83.1149 85.302 76.8077 85.3007 70.4199C85.3008 67.7725 85.0544 65.1311 84.5649 62.5298C81.0344 61.568 77.3924 61.0808 73.7343 61.0809C69.743 61.0391 65.7683 61.6031 61.9448 62.7537V62.7537Z" fill="#0568FF"/>
<path d="M330.235 14.1013C330.009 14.8927 329.58 15.6108 328.992 16.1842C328.403 16.7576 327.676 17.1663 326.881 17.3699C323.557 18.2474 320.063 18.2474 316.738 17.3699V17.3699C315.944 17.1666 315.216 16.7579 314.627 16.1844C314.039 15.6109 313.61 14.8928 313.384 14.1013V14.1013C312.51 10.7636 312.51 7.25563 313.384 3.91789V3.91789C313.612 3.12891 314.042 2.41349 314.63 1.84243C315.219 1.27137 315.945 0.864444 316.738 0.662007V0.662007C320.063 -0.214952 323.557 -0.214952 326.881 0.662007V0.662007C327.674 0.864444 328.401 1.27137 328.989 1.84243C329.577 2.41349 330.007 3.12891 330.235 3.91789C331.109 7.2557 331.109 10.7635 330.235 14.1013Z" fill="#181DC6"/>
<path d="M251.685 47.6803C249.55 43.2591 246.226 39.5263 242.087 36.9046C237.949 34.2829 233.162 32.8773 228.268 32.8466H202.94C201.697 32.8398 200.502 33.3288 199.618 34.2062C198.734 35.0837 198.234 36.2775 198.226 37.5256L198.251 135.569C198.248 136.188 198.366 136.8 198.599 137.373C198.831 137.945 199.174 138.466 199.607 138.906C200.04 139.345 200.555 139.695 201.122 139.935C201.69 140.174 202.299 140.299 202.915 140.303H209.85V140.277C210.465 140.281 211.076 140.162 211.646 139.929C212.216 139.695 212.735 139.351 213.173 138.916C213.611 138.482 213.959 137.964 214.198 137.395C214.436 136.825 214.561 136.213 214.564 135.595V107.249H228.262C233.155 107.218 237.942 105.812 242.081 103.19C246.219 100.569 249.544 96.836 251.678 92.4148C254.713 85.3509 256.278 77.7389 256.278 70.0459C256.278 62.3529 254.713 54.741 251.678 47.677L251.685 47.6803ZM237.411 82.6248C236.239 85.0726 234.406 87.1412 232.122 88.5954C229.837 90.0496 227.192 90.831 224.487 90.8508H219.276C218.66 90.8542 218.049 90.7357 217.479 90.5022C216.909 90.2687 216.39 89.9248 215.953 89.49C215.515 89.0552 215.166 88.5381 214.928 87.9682C214.689 87.3983 214.564 86.7868 214.561 86.1686V54.275C214.564 53.6568 214.689 53.0453 214.928 52.4754C215.166 51.9055 215.515 51.3884 215.953 50.9536C216.39 50.5188 216.909 50.1749 217.479 49.9414C218.049 49.7079 218.66 49.5894 219.276 49.5928H224.487C227.192 49.6126 229.837 50.394 232.122 51.8482C234.406 53.3024 236.239 55.371 237.411 57.8188C239.086 61.7376 239.949 65.9574 239.949 70.2218C239.949 74.4862 239.086 78.706 237.411 82.6248V82.6248Z" fill="white"/>
<path d="M393.4 47.6803C391.266 43.2591 387.941 39.5263 383.803 36.9046C379.664 34.2829 374.877 32.8773 369.984 32.8466H344.656C343.413 32.8398 342.218 33.3288 341.334 34.2062C340.45 35.0837 339.949 36.2775 339.941 37.5256L339.967 135.569C339.964 136.188 340.081 136.8 340.314 137.373C340.547 137.945 340.889 138.466 341.322 138.906C341.755 139.345 342.27 139.695 342.838 139.935C343.406 140.174 344.015 140.299 344.631 140.303H351.565V140.277C352.181 140.281 352.791 140.162 353.362 139.929C353.932 139.695 354.451 139.351 354.889 138.916C355.326 138.482 355.674 137.964 355.913 137.395C356.152 136.825 356.277 136.213 356.28 135.595V107.249H369.977C374.871 107.218 379.658 105.812 383.796 103.19C387.935 100.569 391.26 96.836 393.394 92.4148C396.428 85.3509 397.994 77.7389 397.994 70.0459C397.994 62.3529 396.428 54.741 393.394 47.677L393.4 47.6803ZM379.126 82.6248C377.954 85.0726 376.122 87.1412 373.837 88.5954C371.553 90.0496 368.908 90.831 366.203 90.8508H360.991C359.748 90.8568 358.553 90.3669 357.67 89.4889C356.787 88.6108 356.287 87.4166 356.28 86.1686V54.275C356.287 53.027 356.787 51.8327 357.67 50.9547C358.553 50.0767 359.748 49.5868 360.991 49.5928H366.203C368.908 49.6126 371.553 50.394 373.837 51.8482C376.122 53.3024 377.954 55.371 379.126 57.8188C380.801 61.7375 381.665 65.9574 381.665 70.2218C381.665 74.4862 380.801 78.7061 379.126 82.6248V82.6248Z" fill="white"/>
<path d="M313.203 102.63C313.201 103.247 313.32 103.857 313.554 104.428C313.787 104.998 314.13 105.517 314.563 105.954C314.996 106.391 315.511 106.738 316.078 106.976C316.644 107.213 317.252 107.336 317.866 107.338H324.826C325.442 107.341 326.053 107.223 326.623 106.989C327.193 106.756 327.712 106.412 328.15 105.977C328.587 105.542 328.935 105.025 329.174 104.455C329.413 103.886 329.538 103.274 329.541 102.656V37.5545C329.543 36.9379 329.423 36.3271 329.19 35.7568C328.956 35.1865 328.613 34.668 328.18 34.2308C327.747 33.7937 327.233 33.4464 326.666 33.2089C326.099 32.9714 325.491 32.8483 324.877 32.8466H317.917C317.301 32.8432 316.691 32.9616 316.121 33.1951C315.551 33.4285 315.032 33.7726 314.594 34.2074C314.156 34.6422 313.808 35.1592 313.569 35.7291C313.331 36.299 313.206 36.9106 313.203 37.5289V102.63Z" fill="white"/>
<path d="M187.829 83.4498V36.8731C187.826 36.4301 187.715 35.9944 187.507 35.6042C187.298 35.214 186.997 34.881 186.631 34.6342C186.151 34.3669 185.609 34.2343 185.06 34.2504C184.847 34.2496 184.634 34.2667 184.423 34.3016L174.838 36.7579C173.797 37.0214 172.89 37.6615 172.29 38.5554C171.716 39.3124 171.416 40.2428 171.439 41.1938V81.697C171.357 84.1853 170.295 86.5392 168.486 88.2421C166.677 89.945 164.269 90.8578 161.79 90.7802H159.796C157.318 90.8578 154.91 89.945 153.101 88.2421C151.292 86.5392 150.23 84.1853 150.147 81.697V46.6598C150.145 46.2168 150.035 45.781 149.826 45.3908C149.617 45.0005 149.316 44.6676 148.95 44.421C148.47 44.1537 147.928 44.0211 147.379 44.0372C147.166 44.0364 146.953 44.0535 146.742 44.0883L137.275 46.3112C136.249 46.5609 135.339 47.1543 134.695 47.9935C134.118 48.6606 133.796 49.5119 133.787 50.3953V83.4369C133.979 89.9189 136.725 96.0595 141.423 100.511C146.12 104.962 152.384 107.36 158.841 107.178H162.756C169.212 107.36 175.476 104.962 180.174 100.511C184.871 96.0595 187.617 89.9189 187.809 83.4369" fill="white"/>
<path d="M281.985 49.5928H298.107C298.721 49.5945 299.329 49.4746 299.897 49.2402C300.465 49.0058 300.982 48.6613 301.417 48.2265C301.853 47.7917 302.198 47.2752 302.435 46.7062C302.671 46.1372 302.794 45.5271 302.796 44.9105V37.5799C302.799 36.9616 302.681 36.3488 302.449 35.7763C302.216 35.2038 301.874 34.6829 301.44 34.2434C301.007 33.8038 300.492 33.4543 299.925 33.2146C299.357 32.9749 298.748 32.8498 298.132 32.8464H281.95V12.9371C281.948 12.4945 281.838 12.0591 281.629 11.6689C281.421 11.2787 281.121 10.9454 280.755 10.6983C280.276 10.4313 279.733 10.2987 279.185 10.3145C278.972 10.3138 278.759 10.3309 278.548 10.3657L269.046 12.806C268.004 13.0692 267.097 13.7094 266.497 14.6034C265.923 15.3604 265.623 16.2911 265.647 17.2421V83.5907C265.839 90.0727 268.585 96.2131 273.282 100.664C277.98 105.115 284.244 107.513 290.701 107.332H298.107C298.721 107.333 299.329 107.213 299.897 106.979C300.465 106.745 300.982 106.4 301.417 105.965C301.853 105.531 302.198 105.014 302.435 104.445C302.671 103.876 302.794 103.266 302.796 102.649V95.6641C302.799 95.0459 302.681 94.4331 302.449 93.8606C302.216 93.2881 301.874 92.7672 301.44 92.3276C301.007 91.8881 300.492 91.5386 299.925 91.2989C299.357 91.0592 298.748 90.9341 298.132 90.9307H291.124C289.472 90.9396 287.836 90.5996 286.324 89.9328V89.9328C284.856 89.0642 283.667 87.7918 282.897 86.266C282.127 84.7402 281.808 83.0248 281.979 81.3229V81.3229L281.937 49.5959" fill="white"/>
</svg>
